<?xml version="1.0" encoding="UTF-8"?>
<svg xmlns="http://www.w3.org/2000/svg" xmlns:xlink="http://www.w3.org/1999/xlink" viewBox="136 20 549 570" role="img" aria-label="3WBW Threeways Birdwatch logo">
<g id="surface1">
<path style=" fill:currentColor;fill-rule:nonzero;" d="M 555.382812 81.308594 C 544.835938 85.535156 534.335938 89.882812 523.726562 93.945312 C 518.707031 95.867188 513.472656 98.554688 508.351562 98.511719 C 503.375 98.46875 498.414062 95.402344 493.457031 93.632812 C 468.632812 84.777344 442.972656 80.757812 416.699219 81.355469 C 330.589844 83.316406 254.492188 134.921875 220.496094 214.179688 C 211.648438 234.800781 205.804688 256.285156 204.234375 278.6875 C 198.316406 363.101562 229.683594 430.414062 298.324219 479.796875 C 326.644531 500.175781 358.78125 511.980469 393.484375 516.046875 C 458.175781 523.617188 515.519531 506.292969 564.882812 463.777344 C 595.78125 437.167969 617.089844 403.96875 629.417969 365.101562 C 637.949219 338.195312 640.847656 310.625 638.625 282.476562 C 635.335938 240.820312 621.167969 203.25 596.476562 169.625 C 585.074219 154.097656 571.667969 140.472656 556.652344 128.417969 C 555.351562 127.371094 554.34375 126.558594 552.4375 127.839844 C 516.914062 151.75 478.300781 169.394531 438.125 183.804688 C 427.246094 187.707031 416.195312 191.132812 405.097656 195.371094 C 410.273438 196.035156 415.429688 196.988281 420.628906 197.320312 C 446.796875 198.972656 471.25 192.089844 494.925781 181.816406 C 515.085938 173.066406 533.867188 161.890625 551.527344 148.820312 C 552.414062 148.164062 553.316406 147.539062 554.738281 147.296875 C 551.75 151.566406 548.925781 155.964844 545.746094 160.089844 C 531.359375 178.753906 513.242188 193.152344 493.261719 205.324219 C 458.457031 226.535156 420.738281 240.582031 381.359375 250.488281 C 380.382812 250.734375 379.40625 250.992188 378.3125 251.277344 C 383.453125 254.089844 402.167969 255.515625 419.554688 254.246094 C 433.652344 253.21875 447.222656 249.652344 460.488281 244.921875 C 473.628906 240.238281 486.117188 234.144531 497.914062 226.644531 C 498.097656 226.832031 498.28125 227.023438 498.46875 227.207031 C 495.121094 231.3125 491.890625 235.515625 488.402344 239.5 C 464.8125 266.449219 434.859375 282.992188 400.609375 291.910156 C 387.164062 295.410156 373.324219 297.507812 359.574219 299.675781 C 354.640625 300.453125 349.433594 299.332031 344.355469 299.441406 C 331.398438 299.722656 319.15625 302.789062 308.128906 309.800781 C 293.609375 319.03125 285.730469 332.78125 281.972656 349.171875 C 278.226562 365.496094 278.53125 381.976562 281.101562 398.367188 C 283.175781 411.59375 286.117188 424.683594 288.628906 437.601562 C 288.582031 437.558594 288.0625 437.21875 287.679688 436.765625 C 263.097656 407.882812 247.386719 374.871094 241.460938 337.316406 C 235.863281 301.832031 240.121094 267.671875 255.800781 235.230469 C 271.003906 203.78125 294.660156 180.285156 324.847656 163.074219 C 347.269531 150.292969 371.527344 142.480469 396.519531 136.90625 C 426.292969 130.265625 456.246094 124.429688 486.027344 117.835938 C 513.113281 111.835938 539.496094 103.597656 564.125 90.5 C 585.535156 79.113281 604.777344 64.878906 620.695312 46.453125 C 623.859375 42.789062 626.375 38.566406 629.636719 33.972656 C 622.050781 61.628906 605.726562 82.789062 585.867188 101.601562 C 649.589844 157.714844 681.5625 227.863281 677.847656 312.699219 C 674.871094 380.667969 647.742188 438.699219 598.582031 485.738281 C 500.578125 579.515625 347.417969 580.710938 247.824219 489.484375 C 145.976562 396.191406 136.597656 241.019531 222.359375 136.785156 C 310.335938 29.855469 455.898438 17.894531 555.183594 80.289062 C 555.25 80.628906 555.316406 80.96875 555.382812 81.308594 "/>
<path style=" fill:currentColor;fill-rule:nonzero;" d="M 346.378906 306.644531 C 342.734375 309.257812 339.484375 311.328125 336.523438 313.75 C 322.503906 325.226562 315.644531 340.351562 315.042969 358.199219 C 314.238281 382.113281 323.550781 402.457031 338.574219 420.417969 C 356.769531 442.171875 380.34375 455.800781 406.988281 464.441406 C 436.464844 473.996094 466.773438 476.1875 497.507812 473.925781 C 505.917969 473.308594 514.300781 472.378906 522.839844 471.835938 C 521.050781 472.449219 519.28125 473.128906 517.46875 473.664062 C 485.789062 483.03125 453.484375 487.722656 420.433594 485.925781 C 397.792969 484.699219 375.90625 480.085938 355.527344 469.613281 C 329.019531 455.988281 311.082031 434.796875 300.492188 407.1875 C 295.695312 394.6875 292.179688 381.890625 292.285156 368.308594 C 292.449219 346.609375 301.898438 330.019531 319.75 318.050781 C 327.0625 313.148438 335.042969 309.59375 343.535156 307.234375 C 344.273438 307.027344 345.039062 306.917969 346.378906 306.644531 "/>
<path style=" fill:currentColor;fill-rule:nonzero;" d="M 394.898438 343.125 C 396.019531 341.289062 396.582031 338.3125 396.582031 334.191406 C 396.582031 328.105469 395.019531 323.347656 391.894531 319.921875 C 388.773438 316.5 382.828125 314.789062 374.070312 314.789062 C 367.066406 314.789062 361.957031 316.023438 358.742188 318.496094 C 355.527344 320.964844 353.921875 325.71875 353.921875 332.75 L 353.921875 339.027344 L 372.296875 339.027344 L 372.296875 332.980469 C 372.296875 330.160156 372.53125 328.316406 373 327.453125 C 373.46875 326.589844 374.34375 326.15625 375.613281 326.15625 C 376.738281 326.15625 377.5625 326.566406 378.09375 327.382812 C 378.625 328.203125 378.890625 329.902344 378.890625 332.476562 L 378.890625 336.570312 C 378.890625 338.964844 378.660156 340.726562 378.207031 341.847656 C 377.753906 342.96875 377.007812 343.695312 375.980469 344.03125 C 374.949219 344.363281 372.25 344.53125 367.882812 344.53125 L 367.882812 355.214844 C 371.460938 355.277344 373.871094 355.511719 375.117188 355.921875 C 376.359375 356.332031 377.296875 357.1875 377.933594 358.492188 C 378.570312 359.796875 378.890625 361.855469 378.890625 364.675781 L 378.890625 369.769531 C 378.890625 374.378906 378.660156 377.226562 378.207031 378.320312 C 377.753906 379.410156 376.8125 379.957031 375.386719 379.957031 C 374.082031 379.957031 373.242188 379.523438 372.863281 378.660156 C 372.484375 377.796875 372.296875 375.773438 372.296875 372.589844 L 372.296875 360.628906 L 353.921875 360.628906 L 353.921875 366.449219 C 353.921875 373.453125 354.445312 378.371094 355.492188 381.207031 C 356.539062 384.042969 358.71875 386.4375 362.039062 388.390625 C 365.359375 390.347656 369.929688 391.324219 375.75 391.324219 C 380.875 391.324219 385.074219 390.484375 388.347656 388.800781 C 391.625 387.117188 393.925781 384.660156 395.261719 381.429688 C 396.59375 378.199219 397.261719 373.65625 397.261719 367.800781 C 397.261719 359.914062 396.582031 354.902344 395.214844 352.765625 C 393.851562 350.625 391.773438 349.085938 388.984375 348.144531 C 391.804688 346.628906 393.777344 344.957031 394.898438 343.125 M 457.882812 316.242188 C 455.410156 333.285156 453.628906 350.71875 452.539062 368.542969 L 450.421875 340.527344 C 449.296875 326.492188 448.601562 318.398438 448.335938 316.242188 L 428.453125 316.242188 C 425.632812 337.074219 423.867188 353.914062 423.160156 366.769531 L 421.203125 341.933594 L 419.183594 316.242188 L 400.582031 316.242188 L 409.152344 389.871094 L 432.917969 389.871094 C 435.714844 370.316406 437.496094 357.445312 438.257812 351.261719 C 439.933594 365.6875 441.863281 378.558594 444.054688 389.871094 L 467.957031 389.871094 L 476.480469 316.242188 Z M 480.257812 389.871094 L 502.402344 389.871094 C 510.105469 389.871094 515.199219 389.429688 517.683594 388.550781 C 520.167969 387.671875 521.980469 386.03125 523.117188 383.636719 C 524.253906 381.238281 524.824219 377.554688 524.824219 372.578125 L 524.824219 365.753906 C 524.824219 360.960938 524.035156 357.402344 522.460938 355.082031 C 520.882812 352.761719 517.878906 351.101562 513.457031 350.101562 C 517.425781 349.191406 520.085938 347.890625 521.433594 346.191406 C 522.785156 344.496094 523.460938 341.496094 523.460938 337.195312 C 523.460938 330.832031 522.503906 326.21875 520.59375 323.355469 C 518.683594 320.492188 516.175781 318.589844 513.070312 317.652344 C 509.960938 316.710938 505.390625 316.242188 499.355469 316.242188 L 480.257812 316.242188 Z M 503.382812 329.25 C 504.0625 329.492188 504.617188 330.078125 505.042969 331 C 505.464844 331.925781 505.679688 333.539062 505.679688 335.84375 C 505.679688 340.210938 505.417969 342.855469 504.90625 343.78125 C 504.390625 344.703125 503.191406 345.164062 501.3125 345.164062 C 500.855469 345.164062 500.222656 345.183594 499.402344 345.210938 L 499.402344 328.839844 C 501.371094 328.871094 502.699219 329.007812 503.382812 329.25 M 504.679688 357.808594 C 505.34375 358.476562 505.679688 360.386719 505.679688 363.539062 L 505.679688 370.40625 C 505.679688 373.378906 505.308594 375.242188 504.5625 376 C 503.820312 376.757812 502.101562 377.183594 499.402344 377.273438 L 499.402344 356.671875 C 502.25 356.761719 504.011719 357.140625 504.679688 357.808594 M 585.171875 316.242188 C 582.699219 333.285156 580.917969 350.71875 579.828125 368.542969 L 577.714844 340.527344 C 576.585938 326.492188 575.890625 318.398438 575.625 316.242188 L 555.742188 316.242188 C 552.921875 337.074219 551.15625 353.914062 550.449219 366.769531 L 548.492188 341.933594 L 546.472656 316.242188 L 527.871094 316.242188 L 536.441406 389.871094 L 560.207031 389.871094 C 563.003906 370.316406 564.785156 357.445312 565.546875 351.261719 C 567.222656 365.6875 569.15625 378.558594 571.34375 389.871094 L 595.246094 389.871094 L 603.769531 316.242188 Z M 585.171875 316.242188 "/>
<path style=" fill:currentColor;fill-rule:nonzero;" d="M 354.328125 396.15625 L 354.328125 400.5 L 357.398438 400.5 L 357.398438 417.859375 L 362.59375 417.859375 L 362.59375 400.5 L 365.675781 400.5 L 365.675781 396.15625 Z M 373.605469 396.15625 L 373.605469 403.917969 L 372.050781 403.917969 L 372.050781 396.15625 L 366.859375 396.15625 L 366.859375 417.859375 L 372.050781 417.859375 L 372.050781 408.746094 L 373.605469 408.746094 L 373.605469 417.859375 L 378.800781 417.859375 L 378.800781 396.15625 Z M 380.882812 417.859375 L 386.074219 417.859375 L 386.074219 408.074219 C 386.789062 408.074219 387.234375 408.214844 387.402344 408.492188 C 387.570312 408.765625 387.65625 409.488281 387.65625 410.648438 L 387.65625 417.859375 L 392.476562 417.859375 L 392.476562 412.136719 C 392.476562 410.386719 392.433594 409.316406 392.347656 408.925781 C 392.261719 408.539062 392.042969 408.109375 391.6875 407.644531 C 391.335938 407.179688 390.644531 406.808594 389.613281 406.53125 C 390.75 406.417969 391.511719 406.070312 391.898438 405.488281 C 392.285156 404.90625 392.476562 403.769531 392.476562 402.082031 C 392.476562 400.230469 392.203125 398.882812 391.65625 398.039062 C 391.109375 397.195312 390.402344 396.671875 389.535156 396.464844 C 388.667969 396.257812 387.007812 396.15625 384.558594 396.15625 L 380.882812 396.15625 Z M 387.316406 400.191406 C 387.542969 400.40625 387.65625 400.859375 387.65625 401.546875 L 387.65625 402.738281 C 387.65625 403.695312 387.539062 404.261719 387.304688 404.433594 C 387.066406 404.609375 386.660156 404.695312 386.074219 404.695312 L 386.074219 399.871094 C 386.675781 399.871094 387.089844 399.976562 387.316406 400.191406 M 394.488281 417.859375 L 403.492188 417.859375 L 403.492188 413.515625 L 399.679688 413.515625 L 399.679688 408.746094 L 402.921875 408.746094 L 402.921875 404.617188 L 399.679688 404.617188 L 399.679688 400.5 L 403.144531 400.5 L 403.144531 396.15625 L 394.488281 396.15625 Z M 404.984375 417.859375 L 413.988281 417.859375 L 413.988281 413.515625 L 410.175781 413.515625 L 410.175781 408.746094 L 413.417969 408.746094 L 413.417969 404.617188 L 410.175781 404.617188 L 410.175781 400.5 L 413.640625 400.5 L 413.640625 396.15625 L 404.984375 396.15625 Z M 429.984375 396.15625 C 429.3125 401.179688 428.828125 406.320312 428.535156 411.574219 L 427.960938 403.316406 C 427.65625 399.179688 427.464844 396.789062 427.394531 396.15625 L 422 396.15625 C 421.238281 402.296875 420.757812 407.261719 420.566406 411.050781 L 420.035156 403.730469 L 419.488281 396.15625 L 414.441406 396.15625 L 416.765625 417.859375 L 423.214844 417.859375 C 423.972656 412.097656 424.453125 408.304688 424.660156 406.480469 C 425.113281 410.734375 425.640625 414.527344 426.234375 417.859375 L 432.714844 417.859375 L 435.027344 396.15625 Z M 437.273438 396.15625 L 434.625 417.859375 L 439.996094 417.859375 L 440.308594 413.960938 L 442.164062 413.960938 L 442.441406 417.859375 L 447.75 417.859375 L 444.78125 396.15625 Z M 440.242188 410.113281 C 440.375 408.191406 440.707031 405.152344 441.238281 400.996094 C 441.503906 404.617188 441.765625 407.652344 442.027344 410.113281 Z M 453.40625 396.15625 C 452.730469 399.542969 452.25 402.394531 451.960938 404.710938 C 451.867188 403.242188 451.445312 400.394531 450.699219 396.15625 L 445.929688 396.15625 L 449.582031 410.003906 L 449.582031 417.859375 L 454.390625 417.859375 L 454.390625 410.003906 L 458.179688 396.15625 Z M 470.066406 401.867188 C 470.066406 400.144531 469.914062 398.921875 469.605469 398.199219 C 469.296875 397.480469 468.667969 396.882812 467.71875 396.410156 C 466.769531 395.9375 465.617188 395.699219 464.269531 395.699219 C 463.035156 395.699219 461.984375 395.917969 461.113281 396.351562 C 460.242188 396.785156 459.609375 397.386719 459.21875 398.152344 C 458.828125 398.921875 458.632812 400.136719 458.632812 401.800781 C 458.632812 402.953125 458.773438 403.902344 459.046875 404.640625 C 459.324219 405.382812 459.671875 405.964844 460.089844 406.386719 C 460.507812 406.804688 461.363281 407.480469 462.65625 408.410156 C 463.945312 409.332031 464.753906 409.988281 465.085938 410.378906 C 465.40625 410.773438 465.566406 411.609375 465.566406 412.886719 C 465.566406 413.46875 465.480469 413.90625 465.3125 414.199219 C 465.144531 414.496094 464.886719 414.644531 464.542969 414.644531 C 464.195312 414.644531 463.957031 414.527344 463.820312 414.292969 C 463.683594 414.0625 463.617188 413.539062 463.617188 412.726562 L 463.617188 410.085938 L 458.792969 410.085938 L 458.792969 411.507812 C 458.792969 413.132812 458.945312 414.386719 459.25 415.273438 C 459.554688 416.160156 460.199219 416.886719 461.179688 417.457031 C 462.164062 418.03125 463.347656 418.316406 464.738281 418.316406 C 466.003906 418.316406 467.113281 418.070312 468.070312 417.574219 C 469.023438 417.078125 469.667969 416.460938 470 415.730469 C 470.332031 414.996094 470.5 413.855469 470.5 412.3125 C 470.5 410.183594 470.199219 408.640625 469.597656 407.6875 C 469 406.730469 467.542969 405.507812 465.230469 404.015625 C 464.425781 403.496094 463.9375 403.054688 463.765625 402.6875 C 463.582031 402.320312 463.492188 401.777344 463.492188 401.050781 C 463.492188 400.488281 463.574219 400.066406 463.734375 399.789062 C 463.894531 399.511719 464.128906 399.375 464.441406 399.375 C 464.730469 399.375 464.9375 399.476562 465.058594 399.683594 C 465.183594 399.886719 465.246094 400.367188 465.246094 401.117188 L 465.246094 402.726562 L 470.066406 402.726562 Z M 476.578125 417.859375 L 482.585938 417.859375 C 484.675781 417.859375 486.054688 417.730469 486.730469 417.472656 C 487.402344 417.214844 487.894531 416.730469 488.203125 416.023438 C 488.511719 415.316406 488.667969 414.230469 488.667969 412.761719 L 488.667969 410.75 C 488.667969 409.339844 488.453125 408.289062 488.023438 407.605469 C 487.597656 406.921875 486.78125 406.433594 485.582031 406.136719 C 486.660156 405.871094 487.382812 405.484375 487.746094 404.984375 C 488.113281 404.484375 488.296875 403.601562 488.296875 402.332031 C 488.296875 400.457031 488.039062 399.097656 487.519531 398.253906 C 487 397.410156 486.320312 396.847656 485.476562 396.570312 C 484.636719 396.296875 483.394531 396.15625 481.757812 396.15625 L 476.578125 396.15625 Z M 482.851562 399.992188 C 483.035156 400.0625 483.1875 400.234375 483.300781 400.507812 C 483.417969 400.78125 483.472656 401.253906 483.472656 401.933594 C 483.472656 403.222656 483.402344 404 483.265625 404.273438 C 483.125 404.546875 482.800781 404.683594 482.289062 404.683594 C 482.167969 404.683594 481.992188 404.6875 481.773438 404.695312 L 481.773438 399.871094 C 482.304688 399.878906 482.667969 399.917969 482.851562 399.992188 M 483.203125 408.410156 C 483.382812 408.605469 483.472656 409.167969 483.472656 410.097656 L 483.472656 412.125 C 483.472656 413 483.375 413.546875 483.171875 413.773438 C 482.96875 413.996094 482.503906 414.121094 481.773438 414.148438 L 481.773438 408.074219 C 482.542969 408.101562 483.023438 408.214844 483.203125 408.410156 M 490.527344 417.859375 L 495.722656 417.859375 L 495.722656 396.15625 L 490.527344 396.15625 Z M 497.804688 417.859375 L 503 417.859375 L 503 408.074219 C 503.714844 408.074219 504.15625 408.214844 504.324219 408.492188 C 504.492188 408.765625 504.578125 409.488281 504.578125 410.648438 L 504.578125 417.859375 L 509.398438 417.859375 L 509.398438 412.136719 C 509.398438 410.386719 509.355469 409.316406 509.269531 408.925781 C 509.183594 408.539062 508.964844 408.109375 508.609375 407.644531 C 508.257812 407.179688 507.566406 406.808594 506.539062 406.53125 C 507.671875 406.417969 508.433594 406.070312 508.820312 405.488281 C 509.207031 404.90625 509.398438 403.769531 509.398438 402.082031 C 509.398438 400.230469 509.125 398.882812 508.578125 398.039062 C 508.03125 397.195312 507.324219 396.671875 506.457031 396.464844 C 505.589844 396.257812 503.929688 396.15625 501.480469 396.15625 L 497.804688 396.15625 Z M 504.238281 400.191406 C 504.464844 400.40625 504.578125 400.859375 504.578125 401.546875 L 504.578125 402.738281 C 504.578125 403.695312 504.460938 404.261719 504.226562 404.433594 C 503.992188 404.609375 503.582031 404.695312 503 404.695312 L 503 399.871094 C 503.597656 399.871094 504.011719 399.976562 504.238281 400.191406 M 511.410156 417.859375 L 517.957031 417.859375 C 519.199219 417.859375 520.128906 417.789062 520.746094 417.640625 C 521.363281 417.492188 521.878906 417.234375 522.300781 416.863281 C 522.71875 416.492188 523.011719 415.976562 523.183594 415.320312 C 523.351562 414.664062 523.433594 413.363281 523.433594 411.414062 L 523.433594 403.8125 C 523.433594 401.753906 523.375 400.378906 523.261719 399.675781 C 523.148438 398.972656 522.859375 398.335938 522.398438 397.765625 C 521.9375 397.191406 521.265625 396.78125 520.382812 396.53125 C 519.5 396.28125 517.800781 396.15625 515.292969 396.15625 L 511.410156 396.15625 Z M 517.761719 400.066406 C 517.96875 400.195312 518.097656 400.398438 518.15625 400.675781 C 518.210938 400.953125 518.242188 401.582031 518.242188 402.566406 L 518.242188 410.996094 C 518.242188 412.445312 518.15625 413.332031 517.984375 413.660156 C 517.808594 413.984375 517.351562 414.148438 516.601562 414.148438 L 516.601562 399.871094 C 517.167969 399.871094 517.554688 399.933594 517.761719 400.066406 M 539.875 396.15625 C 539.203125 401.179688 538.722656 406.320312 538.425781 411.574219 L 537.851562 403.316406 C 537.546875 399.179688 537.359375 396.789062 537.285156 396.15625 L 531.894531 396.15625 C 531.128906 402.296875 530.648438 407.261719 530.457031 411.050781 L 529.925781 403.730469 L 529.378906 396.15625 L 524.335938 396.15625 L 526.660156 417.859375 L 533.105469 417.859375 C 533.863281 412.097656 534.347656 408.304688 534.554688 406.480469 C 535.007812 410.734375 535.53125 414.527344 536.125 417.859375 L 542.609375 417.859375 L 544.917969 396.15625 Z M 547.167969 396.15625 L 544.519531 417.859375 L 549.886719 417.859375 L 550.199219 413.960938 L 552.054688 413.960938 L 552.335938 417.859375 L 557.640625 417.859375 L 554.671875 396.15625 Z M 550.132812 410.113281 C 550.269531 408.191406 550.601562 405.152344 551.128906 400.996094 C 551.394531 404.617188 551.65625 407.652344 551.921875 410.113281 Z M 556.242188 396.15625 L 556.242188 400.5 L 559.3125 400.5 L 559.3125 417.859375 L 564.503906 417.859375 L 564.503906 400.5 L 567.589844 400.5 L 567.589844 396.15625 Z M 580.898438 403.546875 C 580.898438 401.519531 580.742188 400.027344 580.429688 399.066406 C 580.117188 398.109375 579.460938 397.308594 578.464844 396.664062 C 577.472656 396.023438 576.210938 395.699219 574.679688 395.699219 C 573.554688 395.699219 572.558594 395.910156 571.691406 396.324219 C 570.820312 396.738281 570.144531 397.308594 569.652344 398.035156 C 569.164062 398.757812 568.871094 399.511719 568.773438 400.292969 C 568.675781 401.074219 568.625 402.246094 568.625 403.8125 L 568.625 410.152344 C 568.625 412.28125 568.785156 413.871094 569.105469 414.933594 C 569.425781 415.992188 570.078125 416.820312 571.066406 417.417969 C 572.054688 418.015625 573.308594 418.316406 574.828125 418.316406 C 576.292969 418.316406 577.523438 417.964844 578.523438 417.257812 C 579.519531 416.546875 580.167969 415.726562 580.460938 414.785156 C 580.75 413.847656 580.898438 412.253906 580.898438 410.007812 L 580.898438 409.160156 L 575.703125 409.160156 L 575.703125 411.886719 C 575.703125 413.078125 575.644531 413.835938 575.523438 414.160156 C 575.40625 414.480469 575.152344 414.644531 574.765625 414.644531 C 574.363281 414.644531 574.105469 414.480469 573.988281 414.160156 C 573.875 413.839844 573.816406 413.152344 573.816406 412.097656 L 573.816406 402.015625 C 573.816406 400.914062 573.875 400.199219 573.988281 399.871094 C 574.105469 399.539062 574.375 399.375 574.804688 399.375 C 575.179688 399.375 575.425781 399.511719 575.539062 399.78125 C 575.648438 400.054688 575.703125 400.738281 575.703125 401.835938 L 575.703125 405.609375 L 580.898438 405.609375 Z M 589.503906 396.15625 L 589.503906 403.917969 L 587.953125 403.917969 L 587.953125 396.15625 L 582.757812 396.15625 L 582.757812 417.859375 L 587.953125 417.859375 L 587.953125 408.746094 L 589.503906 408.746094 L 589.503906 417.859375 L 594.699219 417.859375 L 594.699219 396.15625 Z M 589.503906 396.15625 "/>
</g>
</svg>
